<svg height="512" viewBox="0 0 512 512" width="512" xmlns="http://www.w3.org/2000/svg"><g id="Flat"><path d="m424 32v416a8 8 0 0 1 -8 8h-280a48 48 0 0 1 -48-48v-336a48 48 0 0 1 48-48h280a8 8 0 0 1 8 8z" fill="#348fd9"/><path d="m424 143.08v304.92a8 8 0 0 1 -8 8h-280a48 48 0 0 1 -48-48v-3.68c126.47-42.04 251.43-122.53 336-261.24z" fill="#3086cd"/><path d="m424 360v88a8 8 0 0 1 -8 8h-280a47.813 47.813 0 0 1 -33.94-14.06 48.343 48.343 0 0 1 -7.64-9.94 48 48 0 0 1 41.58-72z" fill="#e0e0de"/><path d="m424 416v16h-329.58a47.643 47.643 0 0 1 -5.75-16z" fill="#c7c7c5"/><path d="m424 384v16h-335.33a47.643 47.643 0 0 1 5.75-16z" fill="#c7c7c5"/><path d="m128 48h16v288h-16z" fill="#2d7dbf"/><path d="m216 488-32-32-32 32v-88h64z" fill="#f35244"/><path d="m192 104h176v48h-176z" fill="#e0e0de"/><path d="m192 136h176v16h-176z" fill="#d9d9d7"/><path d="m152 400h64v16h-64z" fill="#de4132"/></g></svg>