<svg id="Capa_1" enable-background="new 0 0 512 512" height="512" viewBox="0 0 512 512" width="512" xmlns="http://www.w3.org/2000/svg"><path d="m429.566 0h-329.111c-16.588 0-30.035 13.447-30.035 30.034v300.509 144.826c0-20.23 16.4-36.631 36.63-36.631h21.591 300.924c6.635 0 12.014-5.379 12.014-12.014v-414.71c.001-6.635-5.378-12.014-12.013-12.014z" fill="#ae66d8"/><circle cx="213.081" cy="175.467" fill="#5a3535" r="16.255"/><circle cx="327.421" cy="175.467" fill="#5a3535" r="16.255"/><path d="m408.137 475.37c0-15.33 7.886-28.811 19.815-36.631h-320.901c-20.23 0-36.63 16.4-36.63 36.63 0 20.23 16.4 36.63 36.63 36.63h311.768c2.926 0 4.315-3.527 2.239-5.59-7.979-7.926-12.921-18.903-12.921-31.039z" fill="#eedfda"/><path d="m429.566 0h-32.036v336.295c0 31.144-25.247 56.392-56.392 56.392h-256.546-14.172v82.683c0-20.23 16.4-36.631 36.63-36.631h21.591 300.924c6.635 0 12.014-5.379 12.014-12.014v-414.711c.001-6.635-5.378-12.014-12.013-12.014z" fill="#9459bc"/><path d="m408.137 475.369c0-15.33 7.886-28.811 19.815-36.631h-29.983c-11.93 7.82-19.816 21.301-19.816 36.631v.14c.023 7.252-5.693 13.205-12.945 13.205h-292.269c5.336 13.629 18.592 23.286 34.112 23.286h290.918 20.85c2.926 0 4.315-3.527 2.239-5.59-7.978-7.926-12.921-18.904-12.921-31.041z" fill="#ded0cb"/><path d="m188.787 387.098c0 13.036-10.568 23.604-23.604 23.604s-23.604-10.568-23.604-23.604c0-9.624 12.864-31.282 19.599-41.962 1.86-2.95 6.151-2.95 8.011 0 6.734 10.68 19.598 32.339 19.598 41.962z" fill="#d8eafb"/><path d="m169.188 345.137c-1.86-2.95-6.151-2.95-8.011 0-.208.329-.421.669-.64 1.019 5.855 10.353 11.664 22.253 11.664 28.721 0 13.036-10.568 23.604-23.604 23.604-1.472 0-2.91-.141-4.307-.399 3.952 7.503 11.823 12.622 20.893 12.622 13.036 0 23.604-10.568 23.604-23.604 0-9.625-12.864-31.284-19.599-41.963z" fill="#b3d8fb"/><path d="m332.973 449.024c0 13.036-10.568 23.604-23.604 23.604s-23.604-10.568-23.604-23.604c0-9.624 12.864-31.282 19.599-41.962 1.86-2.95 6.151-2.95 8.011 0 6.734 10.68 19.598 32.338 19.598 41.962z" fill="#d8eafb"/><path d="m313.374 407.062c-1.86-2.95-6.151-2.95-8.011 0-.208.329-.421.669-.64 1.019 5.855 10.353 11.664 22.253 11.664 28.721 0 13.036-10.568 23.604-23.604 23.604-1.472 0-2.91-.141-4.307-.399 3.952 7.503 11.823 12.622 20.893 12.622 13.036 0 23.604-10.568 23.604-23.604 0-9.625-12.864-31.283-19.599-41.963z" fill="#b3d8fb"/><path d="m218.633 296.178c0 13.036-10.568 23.604-23.604 23.604s-23.604-10.568-23.604-23.604c0-9.624 12.864-31.282 19.599-41.962 1.86-2.95 6.151-2.95 8.011 0 6.735 10.68 19.598 32.338 19.598 41.962z" fill="#d8eafb"/><path d="m199.035 254.216c-1.86-2.95-6.151-2.95-8.011 0-.208.329-.421.669-.64 1.019 5.855 10.353 11.664 22.253 11.664 28.721 0 13.036-10.568 23.604-23.604 23.604-1.472 0-2.91-.141-4.307-.399 3.952 7.503 11.823 12.622 20.893 12.622 13.036 0 23.604-10.568 23.604-23.604-.001-9.625-12.864-31.283-19.599-41.963z" fill="#b3d8fb"/><path d="m287.664 238.502c-2.572 0-5.086-1.28-6.558-3.618-2.406-3.822-6.533-6.103-11.039-6.103-4.336 0-8.376 2.15-10.808 5.75-2.393 3.541-7.204 4.474-10.747 2.081-3.542-2.393-4.474-7.204-2.081-10.747 5.315-7.867 14.151-12.564 23.636-12.564 9.858 0 18.882 4.986 24.139 13.336 2.277 3.618 1.191 8.396-2.427 10.674-1.279.807-2.706 1.191-4.115 1.191z" fill="#453e43"/><path d="m108.298 0h15.48v438.739h-15.48z" fill="#80499e"/></svg>