<svg height="511pt" viewBox="1 -46 511.99975 511" width="511pt" xmlns="http://www.w3.org/2000/svg"><path d="m331.949219 15.496094v344.949218l-29.992188 29.996094h-241.964843l-29.996094-29.097656v-321.550781l29.996094-39.292969h256.960937c8.398437 0 14.996094 6.597656 14.996094 14.996094zm0 0" fill="#ff6c6c"/><path d="m331.949219 15.496094v344.949218l-29.992188 29.996094h-104.984375v-389.941406h119.980469c8.398437 0 14.996094 6.597656 14.996094 14.996094zm0 0" fill="#ff4949"/><path d="m44.992188.5c-24.808594 0-44.992188 20.183594-44.992188 44.992188v344.949218h59.992188v-389.941406zm0 0" fill="#5a5a5a"/><path d="m402.4375 310.953125c-5.699219 6-15.292969 6-20.992188 0l-41.394531-41.394531c-6-5.695313-6-15.296875 0-20.996094 5.699219-6 15.296875-6 20.996094 0l41.390625 41.394531c6 5.699219 6 15.296875 0 20.996094zm0 0" fill="#c6e2e7"/><path d="m402.4375 310.953125c-5.699219 6-15.292969 6-20.992188 0l-41.394531-41.394531c-6-5.695313-6-15.296875 0-20.996094zm0 0" fill="#8ebac5"/><path d="m498.726562 343.648438-74.988281-74.988282c-5.699219-6-15.300781-6-21.300781 0l-20.992188 21.296875-21.296874 20.996094c-6 6-6 15.597656 0 21.296875l74.988281 74.988281c17.398437 17.699219 46.191406 17.398438 63.589843 0 17.699219-17.398437 17.699219-46.191406 0-63.589843zm0 0" fill="#6e6e6e"/><path d="m498.726562 407.238281c-17.398437 17.398438-46.191406 17.699219-63.589843 0l-74.988281-74.988281c-6-5.699219-6-15.296875 0-21.296875l21.296874-20.996094zm0 0" fill="#444"/><path d="m361.046875 269.558594c-40.796875 41.097656-107.382813 41.097656-148.175781 0-41.097656-40.792969-41.097656-107.382813 0-148.175782 40.792968-41.097656 107.382812-41.097656 148.175781 0 41.09375 40.792969 41.09375 107.382813 0 148.175782zm0 0" fill="#5a5a5a"/><path d="m361.046875 269.558594c-40.796875 41.097656-107.382813 41.097656-148.175781 0-41.097656-40.792969-41.097656-107.382813 0-148.175782zm0 0" fill="#444"/><path d="m340.050781 248.5625c-29.398437 29.09375-76.789062 29.09375-106.183593 0-29.097657-29.394531-29.097657-76.789062 0-106.183594 29.394531-29.097656 76.785156-29.097656 106.183593 0 29.09375 29.394532 29.09375 76.789063 0 106.183594zm0 0" fill="#deecf1"/><path d="m340.050781 248.5625c-29.398437 29.09375-76.789062 29.09375-106.183593 0-29.097657-29.394531-29.097657-76.789062 0-106.183594zm0 0" fill="#c6e2e7"/><path d="m331.949219 360.445312v44.996094c0 8.394532-6.597657 14.996094-14.996094 14.996094h-286.957031c-16.5 0-29.996094-13.496094-29.996094-29.996094 0-16.496094 13.496094-29.996094 29.996094-29.996094zm0 0" fill="#deecf1"/><path d="m331.949219 360.445312v44.996094c0 8.394532-6.597657 14.996094-14.996094 14.996094h-119.980469v-59.992188zm0 0" fill="#c6e2e7"/></svg>