<?xml version="1.0" encoding="iso-8859-1"?>
<!-- Generator: Adobe Illustrator 19.0.0, SVG Export Plug-In . SVG Version: 6.00 Build 0)  -->
<svg version="1.1" id="Capa_1" xmlns="http://www.w3.org/2000/svg" xmlns:xlink="http://www.w3.org/1999/xlink" x="0px" y="0px"
	 viewBox="0 0 453.486 453.486" style="enable-background:new 0 0 453.486 453.486;" xml:space="preserve">
<g>
	<path style="fill:#4DCFE0;" d="M193.567,332.8c0-44.931,24.555-85.682,63.739-106.58l0,0c2.612-1.567,5.224-2.612,7.837-3.657
		c-19.331-8.882-39.184-13.061-60.082-13.061h-39.706C85.42,208.98,20.114,274.286,20.114,354.22v36.571
		c0,8.882,6.792,15.673,15.673,15.673h182.857c-1.567-2.09-3.657-4.702-5.224-7.314C200.359,379.82,193.567,356.833,193.567,332.8z"
		/>
	<path style="fill:#4DCFE0;" d="M185.208,192.261c25.6,0,50.155-10.449,67.918-28.212c18.286-18.286,28.212-42.318,28.212-67.918
		s-9.927-50.155-28.212-67.918C234.841,9.927,210.808,0,185.208,0s-50.155,9.927-67.918,28.212
		C99.527,45.976,89.078,71.053,89.078,96.131C89.078,148.898,132.441,192.261,185.208,192.261z"/>
</g>
<path style="fill:#D4E1F4;" d="M311.641,211.592c-16.718,0-33.437,3.657-49.11,10.449c-2.612,1.045-5.224,2.612-7.837,3.657l0,0
	c-39.184,21.42-63.739,62.171-63.739,106.58c0,24.033,6.792,47.02,19.853,66.351c1.567,2.612,3.135,4.702,5.224,7.314
	c22.988,29.78,57.992,47.543,96.131,47.543c66.873,0,121.208-54.335,121.208-121.208S378.514,211.592,311.641,211.592z"/>
<path style="fill:#3A2C51;" d="M327.314,376.163v-27.69h27.69c8.882,0,15.673-6.792,15.673-15.673s-6.792-15.673-15.673-15.673
	h-27.69v-27.69c0-8.882-6.792-15.673-15.673-15.673c-8.882,0-15.673,6.792-15.673,15.673v27.69h-27.69
	c-8.882,0-15.673,6.792-15.673,15.673s6.792,15.673,15.673,15.673h27.69v27.69c0,8.882,6.792,15.673,15.673,15.673
	C320.522,391.837,327.314,385.045,327.314,376.163z"/>
<g>
</g>
<g>
</g>
<g>
</g>
<g>
</g>
<g>
</g>
<g>
</g>
<g>
</g>
<g>
</g>
<g>
</g>
<g>
</g>
<g>
</g>
<g>
</g>
<g>
</g>
<g>
</g>
<g>
</g>
</svg>
