<svg height="512pt" viewBox="-16 0 512 512.00001" width="512pt" xmlns="http://www.w3.org/2000/svg"><path d="m336.335938 0h-224.933594c-3.980469 0-7.792969 1.582031-10.605469 4.394531l-96.402344 96.398438c-2.8125 2.8125-4.394531 6.628906-4.394531 10.605469v353.46875c0 25.988281 21.144531 47.132812 47.132812 47.132812h289.203126c25.914062 0 47.132812-20.953125 47.132812-47.132812v-417.734376c0-25.914062-20.953125-47.132812-47.132812-47.132812zm0 0" fill="#eff6fe"/><g fill="#d9e4ef"><path d="m336.335938 0h-144.605469v512h144.605469c25.914062 0 47.132812-20.953125 47.132812-47.132812v-417.734376c0-25.914062-20.953125-47.132812-47.132812-47.132812zm0 0"/><path d="m95.335938 112.46875c9.445312 0 17.132812-7.6875 17.132812-17.132812v-95.335938h-1.070312c-3.976563 0-7.792969 1.582031-10.605469 4.394531l-96.398438 96.398438c-2.8125 2.8125-4.394531 6.628906-4.394531 10.605469v1.070312zm0 0"/><path d="m288.132812 192.800781h-192.796874c-8.285157 0-15 6.714844-15 15 0 8.285157 6.714843 15 15 15h192.796874c8.285157 0 15-6.714843 15-15 0-8.285156-6.714843-15-15-15zm0 0"/><path d="m288.132812 257.066406h-192.796874c-8.285157 0-15 6.714844-15 15s6.714843 15 15 15h192.796874c8.285157 0 15-6.714844 15-15s-6.714843-15-15-15zm0 0"/><path d="m288.132812 321.332031h-192.796874c-8.285157 0-15 6.71875-15 15 0 8.285157 6.714843 15 15 15h192.796874c8.285157 0 15-6.714843 15-15 0-8.28125-6.714843-15-15-15zm0 0"/><path d="m176.734375 385.601562h-81.398437c-8.285157 0-15 6.714844-15 15 0 8.28125 6.714843 15 15 15h81.398437c8.285156 0 15-6.71875 15-15 0-8.285156-6.714844-15-15-15zm0 0"/></g><path d="m303.132812 207.800781c0 8.277344-6.710937 15-15 15h-96.402343v-30h96.402343c8.289063 0 15 6.71875 15 15zm0 0" fill="#c1cedb"/><path d="m303.132812 272.070312c0 8.28125-6.710937 15-15 15h-96.402343v-30h96.402343c8.289063 0 15 6.710938 15 15zm0 0" fill="#c1cedb"/><path d="m303.132812 336.328125c0 8.292969-6.710937 15-15 15h-96.402343v-30h96.402343c8.289063 0 15 6.722656 15 15zm0 0" fill="#c1cedb"/><path d="m479.867188 400.601562c0 61.523438-49.875 111.398438-111.398438 111.398438-61.527344 0-111.402344-49.875-111.402344-111.398438 0-61.527343 49.875-111.402343 111.402344-111.402343 61.523438 0 111.398438 49.875 111.398438 111.402343zm0 0" fill="#00d66a"/><path d="m479.867188 400.601562c0-61.527343-49.875-111.402343-111.398438-111.402343v222.800781c61.523438 0 111.398438-49.875 111.398438-111.398438zm0 0" fill="#00b85e"/><path d="m400.601562 385.601562h-17.132812v-17.132812c0-8.285156-6.714844-15-15-15s-15 6.714844-15 15v17.132812h-17.132812c-8.285157 0-15 6.714844-15 15 0 8.28125 6.714843 15 15 15h17.132812v17.132813c0 8.28125 6.714844 15 15 15 8.28125 0 15-6.71875 15-15v-17.132813h17.132812c8.28125 0 15-6.71875 15-15 0-8.285156-6.714843-15-15-15zm0 0" fill="#eff6fe"/><path d="m383.46875 432.734375v-17.132813h17.132812c8.28125 0 15-6.71875 15-15 0-8.285156-6.71875-15-15-15h-17.132812v-17.132812c0-8.285156-6.71875-15-15-15v94.265625c8.28125 0 15-6.714844 15-15zm0 0" fill="#d9e4ef"/></svg>