<?xml version="1.0" encoding="iso-8859-1"?>
<!-- Generator: Adobe Illustrator 19.0.0, SVG Export Plug-In . SVG Version: 6.00 Build 0)  -->
<svg version="1.1" id="Layer_1" xmlns="http://www.w3.org/2000/svg" xmlns:xlink="http://www.w3.org/1999/xlink" x="0px" y="0px"
	 viewBox="0 0 512 512" style="enable-background:new 0 0 512 512;" xml:space="preserve">
<polygon style="fill:#FF8E00;" points="76.446,421.192 65.997,436.866 65.997,464.954 446.004,464.954 446.004,436.866 
	435.555,421.192 256.001,400.294 "/>
<polygon style="fill:#FFBA00;" points="446.004,377.43 256.001,356.532 65.997,377.43 65.997,405.519 76.446,421.192 
	435.555,421.192 446.004,405.519 "/>
<polygon style="fill:#003DA8;" points="446.004,0 283.352,0 262.454,188.715 283.352,377.43 446.004,377.43 "/>
<polygon style="fill:#2F91ED;" points="120.701,0 99.803,188.715 120.701,377.43 283.352,377.43 283.352,0 "/>
<rect x="65.996" style="fill:#003DA8;" width="54.7" height="377.428"/>
<polygon style="fill:#FDE09C;" points="446.004,436.866 65.997,436.866 65.997,405.519 142.194,405.519 175.191,415.968 
	208.188,405.519 446.004,405.519 "/>
<polygon style="fill:#FF0F4D;" points="175.191,405.519 154.293,458.759 175.191,499.171 208.188,512 208.188,405.519 "/>
<polygon style="fill:#FF6E7A;" points="142.193,405.519 142.193,512 175.191,499.171 175.191,405.519 "/>
<g>
	<polygon style="fill:#FFBA00;" points="357.643,75.304 283.353,75.304 272.904,90.977 283.353,106.651 357.643,106.651 	"/>
	<polygon style="fill:#FFBA00;" points="357.643,161.354 357.643,130.007 283.353,130.007 272.904,145.681 283.353,161.354 	"/>
</g>
<g>
	<rect x="209.064" y="75.306" style="fill:#FDE09C;" width="74.292" height="31.347"/>
	<rect x="209.064" y="130.006" style="fill:#FDE09C;" width="74.292" height="31.347"/>
</g>
<g>
</g>
<g>
</g>
<g>
</g>
<g>
</g>
<g>
</g>
<g>
</g>
<g>
</g>
<g>
</g>
<g>
</g>
<g>
</g>
<g>
</g>
<g>
</g>
<g>
</g>
<g>
</g>
<g>
</g>
</svg>
