<svg id="Capa_1" enable-background="new 0 0 510 510" height="512" viewBox="0 0 510 510" width="512" xmlns="http://www.w3.org/2000/svg"><path d="m510 150.83c0 83.046-66.3 150.027-149.341 150.833-36.172.351-69.476-12.102-95.665-33.092-.797-.639-1.941-.583-2.663.139l-59.391 59.4-10.52-10.52-10.7-10.7 59.423-59.413c.721-.721.777-1.863.14-2.66-20.943-26.21-33.345-59.525-32.944-95.691.922-82.966 67.861-149.126 150.832-149.126 41.59 0 79.29 16.92 106.6 44.23s44.229 65.01 44.229 106.6z" fill="#685e68"/><path d="m510 150.83c0 83.046-66.3 150.027-149.341 150.833-36.172.351-69.476-12.102-95.665-33.092-.797-.639-1.941-.583-2.663.139l-59.391 59.4-10.52-10.52 273.35-273.36c27.31 27.31 44.23 65.01 44.23 106.6z" fill="#40383f"/><path d="m225.36 335.76-29.25 29.25-45.28-5.84-5.84-45.28 29.25-29.25c5.86-5.86 15.36-5.86 21.21 0l29.91 29.91c5.86 5.85 5.86 15.35 0 21.21z" fill="#ffe470"/><path d="m225.36 335.76-29.25 29.25-45.28-5.84 59.58-59.57 14.95 14.95c5.86 5.85 5.86 15.35 0 21.21z" fill="#ffb64c"/><path d="m480 150.831c0 66.63-54.21 120.841-120.83 120.841-33.31 0-63.53-13.55-85.41-35.43s-35.43-52.1-35.43-85.411c0-66.621 54.21-120.831 120.84-120.831 33.31 0 63.52 13.55 85.4 35.43 21.88 21.881 35.43 52.091 35.43 85.401z" fill="#d7ebed"/><path d="m480 150.831c0 66.63-54.21 120.841-120.83 120.841-33.31 0-63.53-13.55-85.41-35.43l170.81-170.812c21.88 21.881 35.43 52.091 35.43 85.401z" fill="#b6dade"/><path d="m196.11 365.01-134.4 134.4c-14.12 14.12-37 14.12-51.12 0-14.12-14.11-14.12-37 0-51.12l134.4-134.4z" fill="#685e68"/><path d="m196.11 365.01-134.4 134.4c-14.12 14.12-37 14.12-51.12 0l159.96-159.96z" fill="#40383f"/><path d="m374.171 162.272v10.69c0 8.28-6.72 15-15 15-8.29 0-15-6.72-15-15v-10.96c0-12.85 8.26-24.18 20.56-28.2 7.78-2.55 12.82-10.06 12.25-18.28-.6-8.67-7.85-15.92-16.51-16.52-10.5-.73-19.16 7.53-19.16 17.82 0 8.28-6.72 15-15 15-8.29 0-15-6.72-15-15 0-27.55 23.35-49.661 51.22-47.75 20.62 1.43 37.75 16.08 42.91 35.49 6.411 24.209-6.998 49.712-31.27 57.71z" fill="#ff5b5b"/><g fill="#f40000"><path d="m374.171 162.272v10.69c0 8.28-6.72 15-15 15-8.29 0-15-6.72-15-15v-7.13l61.27-61.27c6.411 24.209-6.998 49.712-31.27 57.71z"/><path d="m359.168 201.632c-8.284 0-15 6.716-15 15 0 10.484 7.495 16.081 15 16.081 7.562 0 15-5.634 15-16.081 0-8.284-6.716-15-15-15z"/></g></svg>