<?xml version="1.0" encoding="iso-8859-1"?>
<!-- Generator: Adobe Illustrator 19.0.0, SVG Export Plug-In . SVG Version: 6.00 Build 0)  -->
<svg version="1.1" id="Capa_1" xmlns="http://www.w3.org/2000/svg" xmlns:xlink="http://www.w3.org/1999/xlink" x="0px" y="0px"
	 viewBox="0 0 512 512" style="enable-background:new 0 0 512 512;" xml:space="preserve">
<path style="fill:#66E26F;" d="M224.057,512v-30.046c74.554,0,135.208-60.654,135.208-135.208s-60.654-135.208-135.208-135.208
	h-45.069v41.276L52.581,126.407L178.988,0v41.276h45.069c62.868,0,121.971,24.482,166.426,68.936s68.936,103.558,68.936,166.426
	s-24.482,121.971-68.936,166.426S286.925,512,224.057,512z"/>
<path style="fill:#48CC4E;" d="M390.483,110.212c-44.454-44.453-103.558-68.936-166.426-68.936h-45.069V0L52.581,126.407h171.477
	c102.33,0,185.285,82.955,185.285,185.285s-82.955,185.285-185.285,185.285V512c62.868,0,121.971-24.482,166.426-68.936
	s68.936-103.558,68.936-166.426S434.938,154.667,390.483,110.212z"/>
<g>
</g>
<g>
</g>
<g>
</g>
<g>
</g>
<g>
</g>
<g>
</g>
<g>
</g>
<g>
</g>
<g>
</g>
<g>
</g>
<g>
</g>
<g>
</g>
<g>
</g>
<g>
</g>
<g>
</g>
</svg>
