<?xml version="1.0" encoding="iso-8859-1"?>
<!-- Generator: Adobe Illustrator 19.0.0, SVG Export Plug-In . SVG Version: 6.00 Build 0)  -->
<svg version="1.1" id="Layer_1" xmlns="http://www.w3.org/2000/svg" xmlns:xlink="http://www.w3.org/1999/xlink" x="0px" y="0px"
	 viewBox="0 0 512 512" style="enable-background:new 0 0 512 512;" xml:space="preserve">
<path style="fill:#F3F3F3;" d="M429.867,0H82.133c-18.133,0-32,13.867-32,32v448c0,18.133,13.867,32,32,32h236.8l142.933-93.867V32
	C461.867,13.867,446.933,0,429.867,0z"/>
<path style="fill:#8AD7F8;" d="M461.867,418.133L318.933,512L390.4,390.4C405.333,418.133,432,433.067,461.867,418.133z"/>
<g>
	<rect x="92.8" y="161.067" style="fill:#CED6E0;" width="325.333" height="21.333"/>
	<rect x="92.8" y="229.333" style="fill:#CED6E0;" width="325.333" height="21.333"/>
	<rect x="92.8" y="296.533" style="fill:#CED6E0;" width="325.333" height="21.333"/>
	<rect x="92.8" y="364.8" style="fill:#CED6E0;" width="325.333" height="21.333"/>
</g>
<g>
	<path style="fill:#F3705A;" d="M122.667,112V43.733h16v54.4h28.8V112H122.667z"/>
	<path style="fill:#F3705A;" d="M233.6,102.4c-6.4,6.4-14.933,9.6-25.6,9.6c-9.6,0-18.133-3.2-25.6-9.6
		c-6.4-6.4-10.667-14.933-10.667-24.533s3.2-18.133,10.667-24.533c7.467-7.467,16-10.667,25.6-10.667c9.6,0,18.133,3.2,25.6,9.6
		c7.467,6.4,10.667,14.933,10.667,24.533S240,96,233.6,102.4z M228.267,77.867c0-6.4-2.133-10.667-5.333-14.933
		c-4.267-4.267-8.533-6.4-13.867-6.4c-5.333,0-10.667,2.133-13.867,6.4c-4.267,4.267-5.333,9.6-5.333,14.933
		c0,6.4,2.133,10.667,5.333,14.933c4.267,4.267,8.533,6.4,13.867,6.4c5.333,0,10.667-2.133,13.867-6.4
		C226.133,88.533,228.267,83.2,228.267,77.867z"/>
	<path style="fill:#F3705A;" d="M302.933,112l-6.4-14.933h-28.8l-6.4,14.933h-16l28.8-67.2h14.933l28.8,67.2H302.933z M281.6,64
		l-8.533,19.2h17.067L281.6,64z"/>
	<path style="fill:#F3705A;" d="M373.333,43.733h14.933v67.2h-14.933l-32-42.667v42.667H326.4v-67.2h13.867l33.067,43.733V43.733z"
		/>
</g>
<path style="fill:#415A6B;" d="M213.333,471.467C213.333,471.467,212.267,471.467,213.333,471.467c-8.533,0-14.933-2.133-21.333-6.4
	c-5.333-3.2-8.533-6.4-9.6-10.667c-2.133-5.333-1.067-11.733,3.2-17.067c-7.467,2.133-14.933,5.333-22.4,9.6
	c-1.067,1.067-2.133,1.067-2.133,2.133c-1.067,1.067-2.133,2.133-3.2,3.2c-4.267,3.2-8.533,4.267-11.733,2.133
	c-4.267-2.133-7.467-6.4-8.533-9.6c-2.133-3.2-3.2-4.267-3.2-4.267l0,0c-1.067,0-2.133,2.133-3.2,3.2
	c-2.133,2.133-3.2,4.267-6.4,6.4c-4.267,3.2-9.6,4.267-13.867,2.133c-4.267-2.133-6.4-6.4-6.4-11.733c0-5.333,0-10.667,1.067-16
	c0-2.133,3.2-4.267,5.333-4.267s4.267,3.2,4.267,5.333c-1.067,4.267-1.067,9.6-1.067,13.867c0,2.133,1.067,3.2,1.067,3.2
	s2.133,0,4.267-1.067s3.2-2.133,4.267-3.2c2.133-3.2,5.333-6.4,10.667-6.4c3.2,0,7.467,1.067,11.733,8.533
	c1.067,2.133,2.133,4.267,3.2,5.333c1.067,0,2.133,0,3.2-1.067s2.133-1.067,3.2-2.133c1.067-1.067,2.133-2.133,3.2-3.2
	c16-10.667,32-14.933,45.867-12.8h1.067c12.8-3.2,25.6-4.267,39.467-3.2c6.4,1.067,14.933,2.133,20.267,7.467
	c2.133,2.133,2.133,4.267,1.067,6.4c-2.133,2.133-4.267,2.133-6.4,1.067c-4.267-3.2-10.667-4.267-16-5.333
	c-7.467-1.067-16-1.067-23.467,0c7.467,5.333,11.733,14.933,11.733,25.6v1.067C229.333,468.267,220.8,471.467,213.333,471.467z
	 M203.733,437.333c-3.2,1.067-6.4,2.133-9.6,5.333c-3.2,3.2-4.267,6.4-3.2,9.6c1.067,2.133,2.133,4.267,5.333,6.4
	c5.333,3.2,10.667,4.267,16,5.333c3.2,0,7.467-1.067,8.533-3.2c-1.067-9.6-4.267-16-11.733-19.2
	C208,438.4,205.867,437.333,203.733,437.333z"/>
<g>
</g>
<g>
</g>
<g>
</g>
<g>
</g>
<g>
</g>
<g>
</g>
<g>
</g>
<g>
</g>
<g>
</g>
<g>
</g>
<g>
</g>
<g>
</g>
<g>
</g>
<g>
</g>
<g>
</g>
</svg>
